<svg width="80" height="19" viewBox="0 0 80 19" fill="none" xmlns="http://www.w3.org/2000/svg">
<g clip-path="url(#clip0_7_2)">
<path d="M11.8904 0V13.0526H15.2877V0H31V16H28.0274V2.94737H24.6301V16H21.6575V2.94737H18.2603V16H8.91781V2.94737H5.94521V16H2.9726V2.94737H0V0H11.8904Z" fill="#3070B3"/>
</g>
<path d="M34.3352 7.27273L36.4446 13.9034H36.5256L38.6392 7.27273H40.6847L37.6761 16H35.2983L32.2855 7.27273H34.3352ZM54.6896 7.27273V16H52.8445V7.27273H54.6896ZM63.908 10.3281H62.0415C62.0075 10.0866 61.9379 9.87216 61.8327 9.68466C61.7276 9.49432 61.5927 9.33239 61.4279 9.19886C61.2631 9.06534 61.0728 8.96307 60.8569 8.89205C60.6438 8.82102 60.4123 8.78551 60.1623 8.78551C59.7106 8.78551 59.3171 8.89773 58.9819 9.12216C58.6467 9.34375 58.3867 9.66761 58.2021 10.0938C58.0174 10.517 57.9251 11.0312 57.9251 11.6364C57.9251 12.2585 58.0174 12.7812 58.2021 13.2045C58.3896 13.6278 58.6509 13.9474 58.9862 14.1634C59.3214 14.3793 59.7092 14.4872 60.1495 14.4872C60.3967 14.4872 60.6254 14.4545 60.8356 14.3892C61.0487 14.3239 61.2376 14.2287 61.4023 14.1037C61.5671 13.9759 61.7035 13.821 61.8114 13.6392C61.9222 13.4574 61.9989 13.25 62.0415 13.017L63.908 13.0256C63.8597 13.4261 63.739 13.8125 63.5458 14.1847C63.3555 14.554 63.0984 14.8849 62.7745 15.1776C62.4535 15.4673 62.07 15.6974 61.6239 15.8679C61.1808 16.0355 60.6793 16.1193 60.1197 16.1193C59.3413 16.1193 58.6452 15.9432 58.0316 15.5909C57.4208 15.2386 56.9379 14.7287 56.5827 14.0611C56.2305 13.3935 56.0543 12.5852 56.0543 11.6364C56.0543 10.6847 56.2333 9.875 56.5913 9.20739C56.9492 8.53977 57.435 8.03125 58.0487 7.68182C58.6623 7.32955 59.3526 7.15341 60.1197 7.15341C60.6254 7.15341 61.0941 7.22443 61.5259 7.36648C61.9606 7.50852 62.3455 7.71591 62.6808 7.98864C63.016 8.25852 63.2887 8.58949 63.4989 8.98153C63.712 9.37358 63.8484 9.82244 63.908 10.3281ZM65.2312 16V7.27273H71.1119V8.79403H67.0763V10.8736H70.8093V12.3949H67.0763V14.4787H71.1289V16H65.2312ZM77.3132 9.78267C77.2791 9.43892 77.1328 9.17187 76.8743 8.98153C76.6158 8.79119 76.2649 8.69602 75.8217 8.69602C75.5206 8.69602 75.2663 8.73864 75.0589 8.82386C74.8516 8.90625 74.6925 9.02131 74.5817 9.16903C74.4737 9.31676 74.4197 9.48438 74.4197 9.67188C74.4141 9.82812 74.4467 9.96449 74.5178 10.081C74.5916 10.1974 74.6925 10.2983 74.8203 10.3835C74.9482 10.4659 75.0959 10.5384 75.2635 10.6009C75.4311 10.6605 75.6101 10.7116 75.8004 10.7543L76.5845 10.9418C76.9652 11.027 77.3146 11.1406 77.6328 11.2827C77.951 11.4247 78.2266 11.5994 78.4595 11.8068C78.6925 12.0142 78.8729 12.2585 79.0007 12.5398C79.1314 12.821 79.1982 13.1435 79.201 13.5071C79.1982 14.0412 79.0618 14.5043 78.7919 14.8963C78.5249 15.2855 78.1385 15.5881 77.6328 15.804C77.13 16.017 76.5234 16.1236 75.8132 16.1236C75.1087 16.1236 74.495 16.0156 73.9723 15.7997C73.4524 15.5838 73.0462 15.2642 72.7536 14.8409C72.4638 14.4148 72.3118 13.8878 72.2976 13.2599H74.0831C74.103 13.5526 74.1868 13.7969 74.3345 13.9929C74.4851 14.1861 74.6854 14.3324 74.9354 14.4318C75.1882 14.5284 75.4737 14.5767 75.7919 14.5767C76.1044 14.5767 76.3757 14.5312 76.6058 14.4403C76.8388 14.3494 77.0192 14.223 77.147 14.0611C77.2749 13.8991 77.3388 13.7131 77.3388 13.5028C77.3388 13.3068 77.2805 13.142 77.1641 13.0085C77.0504 12.875 76.8828 12.7614 76.6612 12.6676C76.4425 12.5739 76.174 12.4886 75.8558 12.4119L74.9055 12.1733C74.1697 11.9943 73.5888 11.7145 73.1626 11.3338C72.7365 10.9531 72.5249 10.4403 72.5277 9.79545C72.5249 9.26705 72.6655 8.8054 72.9496 8.41051C73.2365 8.01562 73.63 7.70739 74.13 7.4858C74.63 7.2642 75.1982 7.15341 75.8345 7.15341C76.4822 7.15341 77.0476 7.2642 77.5305 7.4858C78.0163 7.70739 78.3942 8.01562 78.6641 8.41051C78.9339 8.8054 79.0732 9.26278 79.0817 9.78267H77.3132Z" fill="#5E5E5E"/>
<mask id="mask0_7_2" style="mask-type:alpha" maskUnits="userSpaceOnUse" x="41" y="6" width="11" height="11">
<circle cx="46.2921" cy="11.1131" r="4.89302" transform="rotate(-132.58 46.2921 11.1131)" fill="#D9932A"/>
</mask>
<g mask="url(#mask0_7_2)">
<path d="M47.2547 22.053L45.0225 17.3584L46.2921 11.1131L37.7033 12.9141L43.5543 4.06395L54.4992 4.96575L47.2547 22.053Z" fill="#EABF7E"/>
</g>
<defs>
<clipPath id="clip0_7_2">
<rect width="31" height="16" fill="white"/>
</clipPath>
</defs>
</svg>
